<?xml version="1.0" encoding="utf-8"?>
<!-- Generator: Adobe Illustrator 26.0.1, SVG Export Plug-In . SVG Version: 6.00 Build 0)  -->
<svg version="1.1" id="Layer_1" xmlns="http://www.w3.org/2000/svg" xmlns:xlink="http://www.w3.org/1999/xlink" x="0px" y="0px"
	 viewBox="0 0 2000 500" style="enable-background:new 0 0 2000 500;" xml:space="preserve">
<style type="text/css">
	.st0{fill:#0065B2;}
	.st1{display:none;}
	.st2{display:inline;}
	.st3{fill-rule:evenodd;clip-rule:evenodd;fill:url(#SVGID_1_);}
	.st4{fill-rule:evenodd;clip-rule:evenodd;fill:url(#SVGID_00000139258209416620543680000017307437775048370343_);}
	.st5{fill-rule:evenodd;clip-rule:evenodd;fill:url(#SVGID_00000016758479078886651920000014442525292506572946_);}
	.st6{fill-rule:evenodd;clip-rule:evenodd;fill:url(#SVGID_00000048493942825279453650000002902481197597093560_);}
	.st7{fill-rule:evenodd;clip-rule:evenodd;fill:url(#SVGID_00000114044159670744500740000000197516996131763120_);}
	.st8{fill-rule:evenodd;clip-rule:evenodd;fill:url(#SVGID_00000067204199289363233780000003478952684500181147_);}
	.st9{fill-rule:evenodd;clip-rule:evenodd;fill:url(#SVGID_00000130648005056433239890000015363742262076439728_);}
	.st10{fill-rule:evenodd;clip-rule:evenodd;fill:url(#SVGID_00000160172620374778654070000010069558484528162718_);}
	.st11{fill-rule:evenodd;clip-rule:evenodd;fill:url(#SVGID_00000143577623122898026880000007841897643220815510_);}
	.st12{fill-rule:evenodd;clip-rule:evenodd;fill:url(#SVGID_00000154418695436268431810000008850454775439223739_);}
	.st13{fill-rule:evenodd;clip-rule:evenodd;fill:url(#SVGID_00000133507075113353514110000003634799044466286746_);}
	.st14{fill-rule:evenodd;clip-rule:evenodd;fill:url(#SVGID_00000175316127793071220950000015749435649388718228_);}
	.st15{fill-rule:evenodd;clip-rule:evenodd;fill:url(#SVGID_00000133528935215849632830000013126390044156983472_);}
	.st16{fill-rule:evenodd;clip-rule:evenodd;fill:url(#SVGID_00000058571517905723490610000009870586760300851644_);}
	.st17{fill-rule:evenodd;clip-rule:evenodd;fill:url(#SVGID_00000162324720072479219760000014075218275619758763_);}
	.st18{fill-rule:evenodd;clip-rule:evenodd;fill:url(#SVGID_00000180357113597622418030000003160227214905886117_);}
	.st19{fill-rule:evenodd;clip-rule:evenodd;fill:url(#SVGID_00000101103732133948446990000015731617929022343075_);}
	.st20{fill-rule:evenodd;clip-rule:evenodd;fill:url(#SVGID_00000078042326376289644230000007693360083878493569_);}
	.st21{fill-rule:evenodd;clip-rule:evenodd;fill:url(#SVGID_00000179636622700258338700000004614641232003997824_);}
	.st22{fill-rule:evenodd;clip-rule:evenodd;fill:url(#SVGID_00000088132470439734206750000010535970264129373070_);}
</style>
<g>
	<path d="M130.36,296.75h-15.62c-21.78,0-40.01-7.34-54.69-22.02c-14.68-14.68-22.02-32.91-22.02-54.69V66.98
		c0-7.1,2.19-12.84,6.57-17.22c4.38-4.38,10.12-6.57,17.22-6.57s12.9,2.19,17.4,6.57c4.49,4.38,6.75,10.12,6.75,17.22v153.06
		c0,8.05,2.78,14.86,8.35,20.42c5.56,5.57,12.37,8.35,20.42,8.35h15.62c7.1,0,12.84,2.25,17.22,6.75c4.38,4.5,6.57,10.3,6.57,17.4
		c0,7.1-2.19,12.85-6.57,17.22C143.2,294.56,137.47,296.75,130.36,296.75z"/>
	<path d="M263.89,115.99c25.57,0,47.11,8.7,64.63,26.1c17.52,17.4,26.28,38.89,26.28,64.46s-8.76,47.12-26.28,64.63
		c-17.52,17.52-39.06,26.28-64.63,26.28s-47.05-8.76-64.46-26.28c-17.4-17.52-26.1-39.06-26.1-64.63s8.7-47.05,26.1-64.46
		C216.84,124.69,238.32,115.99,263.89,115.99z M263.89,163.93c-11.84,0-21.9,4.14-30.19,12.43c-8.29,8.29-12.43,18.35-12.43,30.19
		c0,11.84,4.14,21.96,12.43,30.36c8.28,8.41,18.34,12.61,30.19,12.61c11.84,0,21.96-4.2,30.36-12.61
		c8.4-8.4,12.61-18.52,12.61-30.36c0-11.84-4.21-21.9-12.61-30.19C285.85,168.08,275.73,163.93,263.89,163.93z"/>
	<path d="M776.33,179.56l-45.46,44.39c-5.21,4.97-10.78,7.46-16.69,7.46c-6.63,0-12.37-2.49-17.22-7.46
		c-4.86-4.97-7.28-10.77-7.28-17.4c0-5.92,2.6-11.48,7.81-16.69l25.57-25.21c-3.08-0.47-6.16-0.71-9.23-0.71
		c-11.84,0-21.9,4.14-30.19,12.43c-8.29,8.29-12.43,18.35-12.43,30.19c0,11.84,4.14,21.96,12.43,30.36
		c8.28,8.41,18.34,12.61,30.19,12.61h31.61c7.1,0,12.84,2.19,17.22,6.57c4.38,4.38,6.57,10.12,6.57,17.22s-2.19,12.91-6.57,17.4
		c-4.38,4.49-10.12,6.75-17.22,6.75h-31.61c-25.57,0-47.05-8.76-64.46-26.28c-17.4-17.52-26.1-39.06-26.1-64.63
		s8.7-47.05,26.1-64.46c17.4-17.4,38.89-26.1,64.46-26.1c25.8,0,47.7,9.23,65.7,27.7c4.73,4.97,7.1,10.42,7.1,16.34
		C786.63,167.84,783.19,174.35,776.33,179.56z"/>
	<path d="M882.51,296.75c-21.78,0-40.01-7.34-54.69-22.02c-14.68-14.68-22.02-32.91-22.02-54.69v-80.26c0-7.1,2.19-12.84,6.57-17.22
		c4.38-4.38,10.12-6.57,17.22-6.57c16.1,0,24.15,7.93,24.15,23.79v80.26c0,8.05,2.78,14.86,8.35,20.42
		c5.56,5.57,12.37,8.35,20.42,8.35c8.05,0,14.79-2.78,20.24-8.35c5.44-5.56,8.17-12.37,8.17-20.42v-80.26
		c0-7.1,2.25-12.84,6.75-17.22c4.49-4.38,10.3-6.57,17.4-6.57s12.84,2.19,17.22,6.57c4.38,4.38,6.57,10.12,6.57,17.22v158.39
		c0,21.54-7.4,39.71-22.2,54.51c-14.8,14.79-32.97,22.2-54.51,22.2h-1.42c-7.1,0-12.91-2.19-17.4-6.57
		c-4.5-4.38-6.75-10.12-6.75-17.22s2.25-12.91,6.75-17.4c4.49-4.5,10.3-6.75,17.4-6.75h1.42c7.81,0,14.56-2.84,20.24-8.52
		c5.68-5.68,8.52-12.43,8.52-20.24v-6.75C901.92,294.97,892.45,296.75,882.51,296.75z"/>
	<path d="M1068.95,115.99c25.57,0,47.11,8.7,64.63,26.1c17.52,17.4,26.28,38.89,26.28,64.46s-8.76,47.12-26.28,64.63
		c-17.52,17.52-39.06,26.28-64.63,26.28c-25.57,0-47.05-8.76-64.46-26.28c-17.4-17.52-26.1-39.06-26.1-64.63s8.7-47.05,26.1-64.46
		C1021.89,124.69,1043.38,115.99,1068.95,115.99z M1068.95,163.93c-11.84,0-21.9,4.14-30.19,12.43
		c-8.29,8.29-12.43,18.35-12.43,30.19c0,11.84,4.14,21.96,12.43,30.36c8.28,8.41,18.34,12.61,30.19,12.61
		c11.84,0,21.96-4.2,30.36-12.61c8.4-8.4,12.61-18.52,12.61-30.36c0-11.84-4.21-21.9-12.61-30.19
		C1090.9,168.08,1080.78,163.93,1068.95,163.93z"/>
	<path d="M1227.33,140.49v79.55c0,8.05,2.78,14.86,8.35,20.42c5.56,5.57,12.37,8.35,20.42,8.35c8.05,0,14.79-2.78,20.24-8.35
		c5.44-5.56,8.17-12.37,8.17-20.42v-80.26c0-7.1,2.25-12.84,6.75-17.22c4.49-4.38,10.3-6.57,17.4-6.57s12.84,2.19,17.22,6.57
		c4.38,4.38,6.57,10.12,6.57,17.22v80.26c0,21.55-7.34,39.72-22.02,54.51c-14.68,14.8-32.79,22.2-54.33,22.2
		c-21.79,0-40.01-7.34-54.69-22.02c-14.68-14.68-22.02-32.91-22.02-54.69v-79.55c0-7.1,2.19-12.9,6.57-17.4
		c4.38-4.49,10.12-6.75,17.22-6.75s12.9,2.25,17.4,6.75C1225.08,127.59,1227.33,133.39,1227.33,140.49z"/>
	<path d="M1399.92,192.34v80.61c0,7.1-2.25,12.85-6.75,17.22c-4.5,4.38-10.3,6.57-17.4,6.57s-12.84-2.19-17.22-6.57
		c-4.38-4.38-6.57-10.12-6.57-17.22v-80.61c0-21.54,7.4-39.65,22.2-54.33c14.79-14.68,32.97-22.02,54.51-22.02
		c6.86,0,12.55,2.25,17.05,6.75c4.49,4.5,6.75,10.18,6.75,17.05c0,14.68-8.17,22.73-24.5,24.15c-8.05,0.71-14.74,3.61-20.06,8.7
		C1402.58,177.73,1399.92,184.3,1399.92,192.34z"/>
	<path class="st0" d="M1519.59,192.34v80.61c0,7.1-2.25,12.85-6.75,17.22c-4.5,4.38-10.3,6.57-17.4,6.57s-12.84-2.19-17.22-6.57
		c-4.38-4.38-6.57-10.12-6.57-17.22v-80.61c0-21.54,7.4-39.65,22.2-54.33c14.79-14.68,32.97-22.02,54.51-22.02
		c6.86,0,12.55,2.25,17.05,6.75c4.49,4.5,6.75,10.18,6.75,17.05c0,14.68-8.17,22.73-24.5,24.15c-8.05,0.71-14.74,3.61-20.06,8.7
		C1522.25,177.73,1519.59,184.3,1519.59,192.34z"/>
	<path class="st0" d="M1639.26,140.49v79.55c0,8.05,2.78,14.86,8.35,20.42c5.56,5.57,12.37,8.35,20.42,8.35
		c8.05,0,14.79-2.78,20.24-8.35c5.44-5.56,8.17-12.37,8.17-20.42v-80.26c0-7.1,2.25-12.84,6.75-17.22c4.49-4.38,10.3-6.57,17.4-6.57
		s12.84,2.19,17.22,6.57c4.38,4.38,6.57,10.12,6.57,17.22v80.26c0,21.55-7.34,39.72-22.02,54.51c-14.68,14.8-32.79,22.2-54.33,22.2
		c-21.79,0-40.01-7.34-54.69-22.02c-14.68-14.68-22.02-32.91-22.02-54.69v-79.55c0-7.1,2.19-12.9,6.57-17.4
		c4.38-4.49,10.12-6.75,17.22-6.75s12.9,2.25,17.4,6.75C1637.01,127.59,1639.26,133.39,1639.26,140.49z"/>
	<path class="st0" d="M1854.47,297.46c-25.57,0-47.05-8.76-64.46-26.28c-17.4-17.52-26.1-39.06-26.1-64.63s8.7-47.05,26.1-64.46
		c17.4-17.4,38.89-26.1,64.46-26.1s47.05,8.7,64.46,26.1c17.4,17.4,26.1,38.89,26.1,64.46v85.58c0,16.81-5.86,31.07-17.58,42.79
		c-11.72,11.72-25.87,17.58-42.44,17.58h-30.54c-11.84,0-21.9,4.2-30.19,12.61c-8.29,8.4-12.43,18.52-12.43,30.36
		c0,11.83,4.14,21.9,12.43,30.19c8.28,8.28,18.34,12.43,30.19,12.43c11.84,0,21.9-4.14,30.19-12.43
		c8.28-8.29,12.43-18.35,12.43-30.19c0-6.87,2.31-12.61,6.92-17.22c4.62-4.62,10.35-6.92,17.22-6.92c7.1,0,12.84,2.25,17.22,6.75
		c4.38,4.49,6.57,10.3,6.57,17.4c0,25.33-8.76,46.75-26.28,64.28c-17.52,17.52-38.95,26.28-64.28,26.28
		c-25.34,0-46.76-8.76-64.28-26.28c-17.52-17.52-26.28-38.95-26.28-64.28c0-25.34,8.7-46.82,26.1-64.46
		c17.4-17.64,38.76-26.46,64.1-26.46h30.9c3.31,0,6.15-1.24,8.52-3.73c2.36-2.49,3.55-5.39,3.55-8.7v-85.58
		c0-11.84-4.15-21.9-12.43-30.19c-8.29-8.28-18.35-12.43-30.19-12.43c-11.84,0-21.9,4.14-30.19,12.43
		c-8.29,8.29-12.43,18.35-12.43,30.19c0,11.84,4.14,21.96,12.43,30.36c8.28,8.41,18.34,12.61,30.19,12.61c7.1,0,12.9,2.19,17.4,6.57
		c4.49,4.38,6.75,10.12,6.75,17.22s-2.25,12.91-6.75,17.4C1867.37,295.21,1861.57,297.46,1854.47,297.46z"/>
</g>
<g>
	<path d="M1952.52,60.98c6,0,11.08,2.08,15.24,6.24s6.24,9.24,6.24,15.24s-2.08,11.08-6.24,15.24c-4.16,4.16-9.24,6.24-15.24,6.24
		s-11.08-2.08-15.24-6.24c-4.16-4.16-6.24-9.24-6.24-15.24s2.08-11.08,6.24-15.24C1941.44,63.06,1946.52,60.98,1952.52,60.98z
		 M1952.52,69.08c-3.8,0-6.98,1.28-9.54,3.84c-2.56,2.56-3.84,5.74-3.84,9.54c0,3.76,1.29,6.93,3.87,9.51
		c2.58,2.58,5.75,3.87,9.51,3.87c3.76,0,6.93-1.29,9.51-3.87c2.58-2.58,3.87-5.75,3.87-9.51c0-3.76-1.29-6.93-3.87-9.51
		S1956.28,69.08,1952.52,69.08z M1953.95,85.79c0.06,1.22,0.69,1.84,1.88,1.84c1.07,0,1.6,0.53,1.6,1.6c0,1.07-0.53,1.6-1.6,1.6
		c-1.38,0-2.59-0.5-3.62-1.51c-1.04-1-1.52-2.2-1.46-3.58l0.05-1.32c0-0.41,0.16-0.78,0.47-1.11c0.31-0.33,0.67-0.49,1.08-0.49
		c0.78,0,1.46-0.27,2.02-0.82c0.56-0.55,0.85-1.22,0.85-2c0-0.78-0.28-1.45-0.85-2c-0.56-0.55-1.24-0.82-2.02-0.82
		c-0.78,0-1.45,0.27-2,0.82c-0.55,0.55-0.82,1.22-0.82,2v9.22c0,1.03-0.53,1.55-1.6,1.55c-1.04,0-1.55-0.52-1.55-1.55V80
		c0-1.66,0.58-3.08,1.74-4.26c1.16-1.18,2.57-1.76,4.23-1.76c1.66,0,3.08,0.59,4.26,1.76c1.18,1.18,1.76,2.6,1.76,4.26
		c0,1.35-0.41,2.56-1.22,3.65C1956.33,84.73,1955.26,85.44,1953.95,85.79z"/>
</g>
<g id="HEART_2" class="st1">
	<g class="st2">
		<radialGradient id="SVGID_1_" cx="521.0379" cy="176.69" r="202.0179" gradientUnits="userSpaceOnUse">
			<stop  offset="0" style="stop-color:#FFFFFF;stop-opacity:0.2"/>
			<stop  offset="0.26" style="stop-color:#C8DEEA"/>
			<stop  offset="0.5595" style="stop-color:#579CD4"/>
			<stop  offset="0.8204" style="stop-color:#3E69B2"/>
			<stop  offset="1" style="stop-color:#3E69B2"/>
		</radialGradient>
		<path class="st3" d="M489.22,129.12c-69.31-56.83-115.7-21.06-122.14,23.89c-9.56,66.74,94.93,179.98,122.66,179.7
			c25.43-0.26,127.38-109.16,121.84-177.52C607.32,102.7,551.75,76.29,489.22,129.12z"/>
		
			<linearGradient id="SVGID_00000175302975315091627840000002276023147261129893_" gradientUnits="userSpaceOnUse" x1="356.8806" y1="283.2936" x2="605.2358" y2="162.1626">
			<stop  offset="0" style="stop-color:#A2BEE4"/>
			<stop  offset="0.18" style="stop-color:#0065B1"/>
			<stop  offset="0.3409" style="stop-color:#0065B1;stop-opacity:0.8"/>
			<stop  offset="0.4114" style="stop-color:#5396CA;stop-opacity:0.8"/>
			<stop  offset="0.5023" style="stop-color:#B9D2EA;stop-opacity:0.8"/>
			<stop  offset="0.5431" style="stop-color:#E1EAF6;stop-opacity:0.8"/>
			<stop  offset="0.8137" style="stop-color:#E1EAF6;stop-opacity:0.9"/>
			<stop  offset="0.9995" style="stop-color:#FFFFFF;stop-opacity:0"/>
		</linearGradient>
		<path style="fill-rule:evenodd;clip-rule:evenodd;fill:url(#SVGID_00000175302975315091627840000002276023147261129893_);" d="
			M500.93,321.67c-17.96,13.73-117.84-89.97-120.34-156.93c-0.35-9.3,7.31,17.24,23.69,40.53c15.38,21.89,38.92,44.22,64.78,56.41
			c36.53,17.22,73.53,2.66,115.24-37.93c1.77-1.72-4.21,10.82-16.62,31.5C559.92,268.16,535.07,295.57,500.93,321.67z"/>
		
			<linearGradient id="SVGID_00000181046741057062661060000002151885975131297467_" gradientUnits="userSpaceOnUse" x1="553.26" y1="176.7034" x2="595.1977" y2="243.8177">
			<stop  offset="0" style="stop-color:#FFFFFF"/>
			<stop  offset="1" style="stop-color:#B4CBE9;stop-opacity:0.9"/>
		</linearGradient>
		<path style="fill-rule:evenodd;clip-rule:evenodd;fill:url(#SVGID_00000181046741057062661060000002151885975131297467_);" d="
			M562.85,148.64c1.42,0.27,3.04,0.9,4.36,1.56c2.4,1.18,5.9,6.76,5.61,22.13c-0.29,15.37-7.88,35.38-20.3,53.34
			c12.1-43.04,10.88-48.51,9.35-76.53C561.84,148.55,562.09,148.49,562.85,148.64z"/>
		
			<linearGradient id="SVGID_00000060746903887272951670000006392518825995808956_" gradientUnits="userSpaceOnUse" x1="568.1586" y1="183.9233" x2="604.8421" y2="244.9748">
			<stop  offset="0" style="stop-color:#FFFFFF"/>
			<stop  offset="1" style="stop-color:#B4CBE9;stop-opacity:0.9"/>
		</linearGradient>
		<path style="fill-rule:evenodd;clip-rule:evenodd;fill:url(#SVGID_00000060746903887272951670000006392518825995808956_);" d="
			M561.74,239.47c17.58-20.66,22.61-61.31,15.04-87.03c1.28-0.94,10.15,1.79,12.39,2.81c10.69,5.14,3.25,29.84,1.42,36.13
			C582.78,218.16,570.53,230.45,561.74,239.47z"/>
		
			<linearGradient id="SVGID_00000003065809644706985100000015314248276592978564_" gradientUnits="userSpaceOnUse" x1="547.306" y1="127.7762" x2="570.368" y2="127.7762">
			<stop  offset="0" style="stop-color:#FFFFFF"/>
			<stop  offset="1" style="stop-color:#D8E4F5"/>
		</linearGradient>
		<path style="fill-rule:evenodd;clip-rule:evenodd;fill:url(#SVGID_00000003065809644706985100000015314248276592978564_);" d="
			M570.05,144.65c1.88,0.27-5.06-15.56-6.63-18.61c-6.24-12.17-13.57-15.14-15.75-15.14c-0.18,0-0.41,0.13-0.36,0.39
			c8.69,8.5,11.87,22.58,12.03,28.19C559.36,140.13,568.37,144.35,570.05,144.65z"/>
		
			<linearGradient id="SVGID_00000023981636173188706100000015767484372242062007_" gradientUnits="userSpaceOnUse" x1="537.8148" y1="193.816" x2="667.2911" y2="85.1725">
			<stop  offset="0" style="stop-color:#B3CAE8"/>
			<stop  offset="0.5079" style="stop-color:#82A2CB"/>
			<stop  offset="1" style="stop-color:#8DAFDC"/>
		</linearGradient>
		<path style="fill-rule:evenodd;clip-rule:evenodd;fill:url(#SVGID_00000023981636173188706100000015767484372242062007_);" d="
			M583.09,232.88c34.61-70.37,22.1-121.45-31.98-127.27c0,0,8.65-1.15,18.15,1.26c8.78,2.22,18.21,7.69,24.21,15.2
			C605.98,137.7,617.48,171.99,583.09,232.88z"/>
		
			<linearGradient id="SVGID_00000049185551707629255080000003517862263529470346_" gradientUnits="userSpaceOnUse" x1="561.8549" y1="130.2808" x2="593.391" y2="130.2808">
			<stop  offset="0" style="stop-color:#FFFFFF"/>
			<stop  offset="1" style="stop-color:#D8E4F5;stop-opacity:0.9"/>
		</linearGradient>
		<path style="fill-rule:evenodd;clip-rule:evenodd;fill:url(#SVGID_00000049185551707629255080000003517862263529470346_);" d="
			M593.39,149.2c0.09-27.14-31.96-45.38-31.53-34.78c15.84,15.71,13.55,29.43,14.84,30.24C578,145.47,593.3,149.19,593.39,149.2z"/>
		
			<linearGradient id="SVGID_00000025409348495379908370000000993442037043234479_" gradientUnits="userSpaceOnUse" x1="396.9289" y1="281.9567" x2="468.6718" y2="196.4569">
			<stop  offset="0" style="stop-color:#3E69B2"/>
			<stop  offset="0.42" style="stop-color:#2E76BB"/>
			<stop  offset="0.9985" style="stop-color:#A2BEE4"/>
		</linearGradient>
		<path style="fill-rule:evenodd;clip-rule:evenodd;fill:url(#SVGID_00000025409348495379908370000000993442037043234479_);" d="
			M545.02,279.5c-11.77,19.49-37.93,41.01-54.46,41.73c-10.6,0.46-18.17-8.42-36.94-23.13c-48.04-37.65-69.15-86.62-78.81-117.22
			c-9.65-30.6,9.4-75.23,34.05-75.23c0,0-38.5,11.25-26.81,67.83c12.7,61.49,62.32,123.64,109.44,130.75
			C509.21,306.91,533.03,290.06,545.02,279.5z"/>
		
			<linearGradient id="SVGID_00000067920781373745986600000009825642022962028990_" gradientUnits="userSpaceOnUse" x1="485.6307" y1="197.0157" x2="429.3645" y2="280.4337">
			<stop  offset="0" style="stop-color:#B4CBE9"/>
			<stop  offset="1" style="stop-color:#B4CBE9"/>
		</linearGradient>
		<path style="fill-rule:evenodd;clip-rule:evenodd;fill:url(#SVGID_00000067920781373745986600000009825642022962028990_);" d="
			M486.27,300.87c-21.06-4.79-61.77-33.08-85.45-83.71c-2.21-4.73,15.82,22.86,26.72,32.33c24.91,20.07,56.05,28.64,49.03,35.83
			C469.55,292.5,492.3,302.24,486.27,300.87z"/>
		
			<linearGradient id="SVGID_00000065772735990797448370000017836479837896027800_" gradientUnits="userSpaceOnUse" x1="525.4444" y1="296.6948" x2="538.8335" y2="246.7262">
			<stop  offset="0" style="stop-color:#3C6AB2"/>
			<stop  offset="0.42" style="stop-color:#3C6AB2"/>
			<stop  offset="1" style="stop-color:#3E69B2;stop-opacity:0.3"/>
		</linearGradient>
		<path style="fill-rule:evenodd;clip-rule:evenodd;fill:url(#SVGID_00000065772735990797448370000017836479837896027800_);" d="
			M556.5,262.57c0,0-14.15,12.65-17.73,19.38c-3.15,5.92-5.46,8.63-13.06,15.41c-8.61,7.68-18.73,13.51-26.92,18.07
			c-7.24,4.02,16.64-5.89,34.09-22.29C554.36,272.67,559.21,261.01,556.5,262.57z"/>
	</g>
</g>
<g>
	<path d="M1030.16,394.99c2.63-7.51,5.53-14.4,8.68-20.67c4.08-8.12,7.22-12.18,9.42-12.18c1.85,0,2.78,0.94,2.78,2.82
		c0,0.55-0.23,1.21-0.69,1.99c-0.12,0.87-0.17,2.01-0.17,3.42c0,7.08,1.01,14.5,3.03,22.27c2.46,9.33,5.42,14,8.88,14
		c3.9,0,7.12-4.48,9.66-13.43c1.96-6.9,2.95-13.09,2.95-18.55c0-5.58-0.58-10.43-1.73-14.56c-1.76-6.27-4.61-9.4-8.54-9.4
		c-1.21,0-2.51,0.74-3.9,2.21c-0.84,0-1.32-0.03-1.43-0.09s-0.38-0.43-0.78-1.13c0.12-1.21,1.17-2.27,3.16-3.16
		c1.62-0.72,3.02-1.08,4.2-1.08c3.96,0,7.24,2.56,9.84,7.67c2.05,4.04,3.19,8.21,3.42,12.48c0.03,0.67,0.04,1.37,0.04,2.12
		c0,8.46-1.3,16.79-3.9,24.96c-3.26,10.2-7.54,15.3-12.83,15.3c-5.52,0-9.75-5.72-12.7-17.16c-2.05-8.06-3.08-16.09-3.08-24.09
		c0-0.14,0-0.38,0-0.69c-1.18,1.1-3.99,6.53-8.45,16.29c-2.62,5.78-4.78,12.05-6.51,18.81c-0.29,1.18-0.47,2.24-0.56,3.16
		c-0.26,2.92-0.98,4.54-2.17,4.85c-0.32,0.06-0.62,0.09-0.91,0.09c-1.59,0-2.33-0.92-2.21-2.77c0.58-7.94,0.87-11.9,0.87-11.87
		c0-9.62-0.09-15.85-0.26-18.68c-0.69-9.56-2.2-14.34-4.51-14.34c-1.27,0-2.92,1.36-4.94,4.07c-1.36,1.96-2.72,3.94-4.07,5.94
		c-1.16,1.56-2.27,2.38-3.34,2.47l-1.73-1.26c0.09-2.17,2.01-5.15,5.76-8.95s6.63-5.7,8.62-5.7c3.81,0,6.34,3.19,7.58,9.58
		c0.58,3.06,0.87,7.69,0.87,13.87C1030.55,386.05,1030.42,389.85,1030.16,394.99z"/>
	<path d="M1088.34,390.31c-0.52,0.46-1.08,1.86-1.67,4.2s-0.89,4.38-0.89,6.11c0,2.25,1.49,3.38,4.46,3.38
		c2.86,0,6.21-1.66,10.05-4.98c3.73-3.24,6.31-6.57,7.76-10.01h1.39c0.55,0.52,0.74,1.01,0.56,1.47c-1.68,4.85-4.48,8.88-8.41,12.09
		c-3.73,3.09-7.47,4.64-11.22,4.64c-2.77,0-4.87-0.95-6.28-2.86c-1.39-1.82-1.99-4.28-1.82-7.37c0.23-4.33,2.54-9.71,6.93-16.12
		c4.71-6.88,9-10.31,12.87-10.31c1.3,0,2.3,0.61,2.99,1.82c0.52,0.9,0.78,1.83,0.78,2.82c0,2.83-1.2,6.08-3.6,9.75
		c-2.83,4.42-6.08,6.63-9.75,6.63c-1.73,0-3.06-0.38-3.99-1.13L1088.34,390.31z M1101.55,373.58c-1.1,0.26-2.1,0.92-2.99,1.99
		c-6.01,7.05-9.01,11.15-9.01,12.31c0,0.32,0.66,0.52,1.99,0.61c2.25,0.12,4.71-1.5,7.37-4.85c2.6-3.26,3.9-6.18,3.9-8.75
		C1102.81,373.78,1102.39,373.35,1101.55,373.58z"/>
	<path d="M1140.72,385.37c5.92-8.58,11.8-12.87,17.64-12.87c3.84,0,5.76,2.75,5.76,8.23c0,4.54-2.02,9.56-6.07,15.08
		c-4.19,5.72-8.22,8.58-12.09,8.58c-2.92,0-4.38-1.49-4.38-4.46c0-0.92,0.3-2.09,0.91-3.51h1.82c0.06,0.61,0.03,1.23-0.09,1.86
		c-0.12,0.75-0.17,1.34-0.17,1.78c0,0.66,0.39,1,1.17,1c3.67,0,7.21-2.92,10.62-8.75c3.01-5.11,4.51-9.3,4.51-12.57
		c0-2.92-0.78-4.38-2.34-4.38c-3.12,0-6.78,2.57-10.96,7.71c-3.81,4.65-6.02,8.49-6.63,11.53c-1.1,5.2-1.68,11.25-1.73,18.16
		c-0.12,9.68,1.3,14.52,4.25,14.52c0.03,0,0.18-0.05,0.46-0.15c0.27-0.1,1-0.37,2.19-0.8v1.65c0,0.55-0.46,1.03-1.39,1.43
		c-0.75,0.35-1.3,0.51-1.65,0.48c-2.43-0.23-4.3-1.99-5.63-5.29c-1.01-2.54-1.57-5.55-1.69-9.01c-0.06-1.62-0.09-3.28-0.09-4.98
		c0-6.15,0.71-16.93,2.12-32.33c0.4-4.22,1.63-6.33,3.68-6.33c1.3,0,1.95,0.71,1.95,2.12c0,0.17-0.02,0.35-0.04,0.52L1140.72,385.37
		z"/>
	<path d="M1187.93,387.97c-3.09,6.47-5.1,10.43-6.02,11.87c-3.09,4.77-6.36,7.15-9.79,7.15c-2.71,0-4.07-2.72-4.07-8.15
		c0-1.56,0.82-5.76,2.47-12.61c1.91-7.8,3.51-11.73,4.81-11.79c0.63,0,1.25,0.2,1.84,0.58c0.59,0.39,0.89,0.83,0.89,1.32
		c-0.03,0.23-0.13,0.59-0.3,1.08l-0.78,1.99c-3.67,9.88-5.5,16.81-5.5,20.8c0,2.43,0.42,3.64,1.26,3.64c1.04,0,2.66-1.34,4.85-4.03
		c2.37-2.92,4.71-6.64,7.02-11.18c2.6-5.08,3.91-8.96,3.94-11.61c0.03-0.92,0.31-1.78,0.84-2.56c0.53-0.78,1.18-1.17,1.93-1.17
		c1.44,0,2.17,0.72,2.17,2.17c0,0.23-0.25,1.65-0.76,4.25c-0.51,2.6-0.76,5.07-0.76,7.41c0,9.07,1.4,13.61,4.2,13.61
		c0.67,0,1.39-0.39,2.17-1.17c0.35-0.35,0.85-0.74,1.52-1.17c0.63,0.55,0.95,1,0.95,1.34c0,1.04-0.71,1.96-2.12,2.77
		c-1.16,0.66-2.09,1-2.82,1c-4.51,0-7.14-4.92-7.89-14.78L1187.93,387.97z"/>
	<path d="M1211.7,378.39c1.3-0.32,2.86-0.48,4.68-0.48c0.84,0,1.83,0.3,2.99,0.91c1.47,0.81,2.21,1.76,2.21,2.86
		c0,0.2-0.04,0.39-0.13,0.56l-0.04,0.13c0-0.06-0.06,0.06-0.17,0.35c-0.32,0.12-0.43,0.19-0.35,0.22h-0.09
		c-0.17,0.09-0.38,0.13-0.61,0.13c-0.17,0-0.4-0.16-0.69-0.48c-0.58-1.39-1.53-2.08-2.86-2.08c-0.46,0-0.98,0.09-1.56,0.26
		c-1.21,0.32-2.46,0.87-3.73,1.65c0,0.14-0.01,0.38-0.04,0.69c-0.38,2.92-0.48,6.44-0.3,10.57c0.29,7.66,2.01,11.48,5.16,11.48
		c0.89,0,1.72-0.46,2.47-1.39c0.75-0.92,1.27-1.39,1.56-1.39c0.92,0,1.39,0.43,1.39,1.3c0,1.04-0.85,2.02-2.56,2.95
		c-1.42,0.75-2.47,1.13-3.16,1.13c-2.63,0-4.72-1.43-6.28-4.29c-1.1-2.05-1.78-4.32-2.04-6.8c-0.46-4.39-0.49-8.74-0.09-13.04
		c-1.62,0.58-3.57,1.71-5.85,3.38c-0.29,0.23-0.56,0.35-0.82,0.35c-0.78,0-1.17-0.81-1.17-2.43c0-1.01,2.38-2.64,7.15-4.9
		c0.29-0.06,0.58-0.13,0.87-0.22c0.2-1.96,0.52-4.9,0.95-8.8c0.43-3.9,1.4-5.85,2.9-5.85c1.24,0,1.91,0.81,1.99,2.43L1211.7,378.39z
		"/>
	<path d="M1255.08,407.17c-2.51,0.2-4.52-0.65-6.02-2.56c-1.39-1.73-2.08-3.91-2.08-6.54c0-4.45,1.06-9.27,3.18-14.45
		c2.12-5.19,4.11-7.78,5.96-7.78c1.67,0,2.51,0.71,2.51,2.12c0,0.41-0.48,1.24-1.43,2.51c-4.57,6.01-6.85,11.63-6.85,16.86
		c0,4.51,1.13,6.76,3.38,6.76c3.41,0,6.75-3.1,10.01-9.32c2.86-5.37,4.29-9.69,4.29-12.96c0-4.71-1.17-7.06-3.51-7.06
		c-1.79,0-3.7,0.95-5.72,2.86l-0.65-0.39c-0.41-0.23-0.61-0.58-0.61-1.04c0-0.98,1.04-1.98,3.12-2.99c1.73-0.84,3.02-1.26,3.86-1.26
		c4.68,0,7.11,3.61,7.28,10.83c0.09,3.5-1.46,8.1-4.64,13.82C1263.47,403.26,1259.44,406.79,1255.08,407.17z"/>
	<path d="M1296.39,387.97c-3.09,6.47-5.1,10.43-6.02,11.87c-3.09,4.77-6.36,7.15-9.79,7.15c-2.71,0-4.07-2.72-4.07-8.15
		c0-1.56,0.82-5.76,2.47-12.61c1.91-7.8,3.51-11.73,4.81-11.79c0.63,0,1.25,0.2,1.84,0.58c0.59,0.39,0.89,0.83,0.89,1.32
		c-0.03,0.23-0.13,0.59-0.3,1.08l-0.78,1.99c-3.67,9.88-5.5,16.81-5.5,20.8c0,2.43,0.42,3.64,1.26,3.64c1.04,0,2.66-1.34,4.85-4.03
		c2.37-2.92,4.71-6.64,7.02-11.18c2.6-5.08,3.91-8.96,3.94-11.61c0.03-0.92,0.31-1.78,0.84-2.56c0.53-0.78,1.18-1.17,1.93-1.17
		c1.44,0,2.17,0.72,2.17,2.17c0,0.23-0.25,1.65-0.76,4.25c-0.51,2.6-0.76,5.07-0.76,7.41c0,9.07,1.4,13.61,4.2,13.61
		c0.67,0,1.39-0.39,2.17-1.17c0.35-0.35,0.85-0.74,1.52-1.17c0.63,0.55,0.95,1,0.95,1.34c0,1.04-0.71,1.96-2.12,2.77
		c-1.16,0.66-2.09,1-2.82,1c-4.51,0-7.14-4.92-7.89-14.78L1296.39,387.97z"/>
	<path d="M1319.51,383.46c3.58-9.13,7.42-13.69,11.53-13.69c2.71,0,4.3,1.24,4.77,3.73c0.26,1.5-0.23,2.25-1.47,2.25
		c-0.41,0-0.69-0.17-0.87-0.52c-0.12-0.26-0.23-0.62-0.35-1.08l-0.09-0.48c-0.12-0.58-0.49-0.87-1.13-0.87
		c-1.42,0-3.22,1.5-5.42,4.51c-2.57,3.55-4.38,6.79-5.42,9.71c-1.1,3.12-1.62,6.7-1.56,10.75c0,0.14,0.1,2.5,0.3,7.06
		c0,0.55-0.28,1.06-0.84,1.54c-0.56,0.48-1.12,0.71-1.67,0.71c-1.62,0-2.33-1.26-2.12-3.77c0.52-5.84,0.78-10.69,0.78-14.56
		c0-3.99-0.26-8.52-0.78-13.61c-0.06-0.58,0.19-1.17,0.74-1.78c0.55-0.61,1.11-0.91,1.69-0.91c0.95,0,1.65,0.48,2.08,1.43
		c0.32,0.69,0.43,1.34,0.35,1.95C1319.65,378.87,1319.48,381.41,1319.51,383.46z"/>
	<path d="M1366.57,394.55l0.39-0.91c4.62-11.38,8.87-17.07,12.74-17.07c3.23,0,5.27,4.72,6.11,14.17c0.14,2.25,0.48,5.33,1,9.23
		c0.46,2.4,1.1,3.6,1.91,3.6c0.69,0,1.32-0.25,1.89-0.76c0.56-0.5,0.96-0.76,1.19-0.76c0.84,0,1.26,0.42,1.26,1.26
		c0,0.78-0.61,1.5-1.82,2.17c-1.04,0.55-1.89,0.82-2.56,0.82c-3.55,0-5.79-4.69-6.72-14.08c-0.17-2.22-0.51-5.27-1-9.14
		c-0.41-2.37-0.93-3.55-1.56-3.55c-1.68,0-3.83,2.66-6.46,7.97c-3.55,7.14-5.61,13.84-6.15,20.11c-0.03,0.38-0.3,0.78-0.8,1.21
		c-0.51,0.43-1,0.65-1.5,0.65c-0.46,0-0.79-0.23-1-0.69c-0.43-1.1-0.65-4.8-0.65-11.09c0-6.01,0.94-14.7,2.82-26.09
		c2.02-12.48,3.88-18.72,5.59-18.72c1.44,0,2.17,0.71,2.17,2.12c0,0.03-0.51,1.62-1.52,4.77c-1.07,3.35-1.83,6.3-2.3,8.84
		C1367.78,379.11,1366.77,387.77,1366.57,394.55z"/>
	<path d="M1403.6,390.31c-0.52,0.46-1.08,1.86-1.67,4.2c-0.59,2.34-0.89,4.38-0.89,6.11c0,2.25,1.49,3.38,4.46,3.38
		c2.86,0,6.21-1.66,10.05-4.98c3.73-3.24,6.31-6.57,7.76-10.01h1.39c0.55,0.52,0.74,1.01,0.56,1.47c-1.68,4.85-4.48,8.88-8.41,12.09
		c-3.73,3.09-7.47,4.64-11.22,4.64c-2.77,0-4.87-0.95-6.28-2.86c-1.39-1.82-1.99-4.28-1.82-7.37c0.23-4.33,2.54-9.71,6.93-16.12
		c4.71-6.88,9-10.31,12.87-10.31c1.3,0,2.3,0.61,2.99,1.82c0.52,0.9,0.78,1.83,0.78,2.82c0,2.83-1.2,6.08-3.6,9.75
		c-2.83,4.42-6.08,6.63-9.75,6.63c-1.73,0-3.06-0.38-3.99-1.13L1403.6,390.31z M1416.81,373.58c-1.1,0.26-2.09,0.92-2.99,1.99
		c-6.01,7.05-9.01,11.15-9.01,12.31c0,0.32,0.66,0.52,1.99,0.61c2.25,0.12,4.71-1.5,7.37-4.85c2.6-3.26,3.9-6.18,3.9-8.75
		C1418.07,373.78,1417.65,373.35,1416.81,373.58z"/>
	<path d="M1455.11,403.39c-2.76-0.98-4.13-4.19-4.13-9.62c0-0.58,0-1.17,0-1.78c-2.85,3.81-5.99,7.29-9.41,10.44
		c-4.4,4.04-7.87,6.07-10.41,6.07c-0.83,0-1.55-0.23-2.16-0.69c-1.04-0.78-1.55-2.05-1.55-3.81c0-3.61,1.94-8.48,5.81-14.6
		c3.75-5.86,7.86-10.69,12.31-14.47c4.85-4.13,8.45-5.43,10.79-3.9c1.1,0.69,1.65,2.15,1.65,4.38c0,2.66-0.91,4.07-2.73,4.25
		c-1.27,0.09-1.91-0.36-1.91-1.34c0-0.14,0.03-0.27,0.09-0.39c0.55-1.36,0.81-2.57,0.78-3.64c0-0.63-0.07-0.94-0.22-0.91
		c-2.86,0.52-7.49,4.93-13.89,13.24s-9.6,14.03-9.6,17.18c0,1.1,0.49,1.65,1.47,1.65c2.51,0,6.46-3.25,11.83-9.75
		c3.73-4.51,5.76-7,6.11-7.5c1.65-2.28,2.58-4.38,2.82-6.28c0.14-1.3,0.84-1.95,2.08-1.95c1.76,0,2.47,0.85,2.12,2.56
		c-1.42,7.43-2.12,11.95-2.12,13.56c0,2.95,0.65,4.59,1.95,4.94c0.46,0.12,0.95,0.03,1.47-0.26c0.43-0.26,0.68-0.52,0.74-0.78
		c0.29-1.24,1.01-1.86,2.17-1.86c0.69,0,1.04,0.38,1.04,1.13c0,0.32-0.09,0.71-0.26,1.17c-0.9,2.25-2.52,3.38-4.87,3.38
		C1456.43,403.79,1455.78,403.66,1455.11,403.39z"/>
	<path d="M1472.67,383.46c3.58-9.13,7.42-13.69,11.53-13.69c2.71,0,4.3,1.24,4.77,3.73c0.26,1.5-0.23,2.25-1.47,2.25
		c-0.41,0-0.69-0.17-0.87-0.52c-0.12-0.26-0.23-0.62-0.35-1.08l-0.09-0.48c-0.12-0.58-0.49-0.87-1.13-0.87
		c-1.42,0-3.22,1.5-5.42,4.51c-2.57,3.55-4.38,6.79-5.42,9.71c-1.1,3.12-1.62,6.7-1.56,10.75c0,0.14,0.1,2.5,0.3,7.06
		c0,0.55-0.28,1.06-0.84,1.54c-0.56,0.48-1.12,0.71-1.67,0.71c-1.62,0-2.33-1.26-2.12-3.77c0.52-5.84,0.78-10.69,0.78-14.56
		c0-3.99-0.26-8.52-0.78-13.61c-0.06-0.58,0.19-1.17,0.74-1.78c0.55-0.61,1.11-0.91,1.69-0.91c0.95,0,1.65,0.48,2.08,1.43
		c0.32,0.69,0.43,1.34,0.35,1.95C1472.81,378.87,1472.64,381.41,1472.67,383.46z"/>
	<path d="M1498.17,378.39c1.3-0.32,2.86-0.48,4.68-0.48c0.84,0,1.83,0.3,2.99,0.91c1.47,0.81,2.21,1.76,2.21,2.86
		c0,0.2-0.04,0.39-0.13,0.56l-0.04,0.13c0-0.06-0.06,0.06-0.17,0.35c-0.32,0.12-0.43,0.19-0.35,0.22h-0.09
		c-0.17,0.09-0.38,0.13-0.61,0.13c-0.17,0-0.4-0.16-0.69-0.48c-0.58-1.39-1.53-2.08-2.86-2.08c-0.46,0-0.98,0.09-1.56,0.26
		c-1.21,0.32-2.46,0.87-3.73,1.65c0,0.14-0.01,0.38-0.04,0.69c-0.38,2.92-0.48,6.44-0.3,10.57c0.29,7.66,2.01,11.48,5.16,11.48
		c0.89,0,1.72-0.46,2.47-1.39c0.75-0.92,1.27-1.39,1.56-1.39c0.92,0,1.39,0.43,1.39,1.3c0,1.04-0.85,2.02-2.56,2.95
		c-1.42,0.75-2.47,1.13-3.16,1.13c-2.63,0-4.72-1.43-6.28-4.29c-1.1-2.05-1.78-4.32-2.04-6.8c-0.46-4.39-0.49-8.74-0.09-13.04
		c-1.62,0.58-3.57,1.71-5.85,3.38c-0.29,0.23-0.56,0.35-0.82,0.35c-0.78,0-1.17-0.81-1.17-2.43c0-1.01,2.38-2.64,7.15-4.9
		c0.29-0.06,0.58-0.13,0.87-0.22c0.2-1.96,0.52-4.9,0.95-8.8c0.43-3.9,1.4-5.85,2.9-5.85c1.24,0,1.91,0.81,1.99,2.43L1498.17,378.39
		z"/>
	<path d="M1542.02,408.08c-2.75,0-4.84-2.14-6.28-6.41c-1.01-2.95-1.52-5.82-1.52-8.62c0-2.57,0.32-5.73,0.95-9.49
		c0.95-5.43,2.25-8.15,3.9-8.15c1.3,0,1.95,0.75,1.95,2.25c0,0.69-0.41,1.99-1.21,3.9c-0.84,2.08-1.45,5.62-1.82,10.62
		c0.06,2.37,0.06,3.78,0,4.25c0.38,1.79,0.75,3.58,1.13,5.37c0.75,2.37,1.86,3.55,3.34,3.55c0.35,0,0.58-0.06,0.69-0.17
		c0.4-0.55,0.97-1,1.69-1.34c0.61,0.52,0.91,1.01,0.91,1.47c0,0.78-0.51,1.46-1.52,2.04
		C1543.42,407.83,1542.68,408.08,1542.02,408.08z M1539.42,365.26c-0.64,0-1.18-0.27-1.62-0.82s-0.67-1.07-0.67-1.56
		c0-0.58,0.22-1.16,0.67-1.73c0.45-0.58,1.02-0.87,1.71-0.87c1.5,0,2.25,0.82,2.25,2.47
		C1541.76,364.42,1540.98,365.26,1539.42,365.26z"/>
	<path d="M1557.51,392.6l0.74-1.3c6.21-10.51,10.62-15.77,13.22-15.77c2.46,0,4.09,1.81,4.9,5.42c0.26,2.75,0.52,5.49,0.78,8.23
		c0.46,4.51,0.75,7.06,0.87,7.67c0.66,4.04,1.63,6.07,2.9,6.07c0.55,0,1.3-0.5,2.25-1.52l1.6,0.52c0.06,1.13-0.43,2.05-1.47,2.77
		c-0.78,0.55-1.5,0.82-2.17,0.82c-4.16,0-6.73-4.69-7.71-14.08c-0.17-2.22-0.48-5.27-0.91-9.14c-0.32-2.37-0.72-3.55-1.21-3.55
		c-0.98,0-3.4,3.04-7.26,9.12s-6.58,11.69-8.17,16.83c-0.4,1.39-1.11,2.08-2.12,2.08c-1.3,0-1.89-0.65-1.78-1.95
		c0.03-0.46,0.95-6.59,2.77-18.37c0.09-1.47,0.23-3.51,0.43-6.11c0.23-2.37,1.1-3.55,2.6-3.55c0.87,0,1.46,0.32,1.78,0.95
		c0.17,0.67,0.35,1.32,0.52,1.95L1557.51,392.6z"/>
	<path d="M1595.62,378.39c1.3-0.32,2.86-0.48,4.68-0.48c0.84,0,1.83,0.3,2.99,0.91c1.47,0.81,2.21,1.76,2.21,2.86
		c0,0.2-0.04,0.39-0.13,0.56l-0.04,0.13c0-0.06-0.06,0.06-0.17,0.35c-0.32,0.12-0.43,0.19-0.35,0.22h-0.09
		c-0.17,0.09-0.38,0.13-0.61,0.13c-0.17,0-0.4-0.16-0.69-0.48c-0.58-1.39-1.53-2.08-2.86-2.08c-0.46,0-0.98,0.09-1.56,0.26
		c-1.21,0.32-2.46,0.87-3.73,1.65c0,0.14-0.01,0.38-0.04,0.69c-0.38,2.92-0.48,6.44-0.3,10.57c0.29,7.66,2.01,11.48,5.16,11.48
		c0.89,0,1.72-0.46,2.47-1.39c0.75-0.92,1.27-1.39,1.56-1.39c0.92,0,1.39,0.43,1.39,1.3c0,1.04-0.85,2.02-2.56,2.95
		c-1.42,0.75-2.47,1.13-3.16,1.13c-2.63,0-4.72-1.43-6.28-4.29c-1.1-2.05-1.78-4.32-2.04-6.8c-0.46-4.39-0.49-8.74-0.09-13.04
		c-1.62,0.58-3.57,1.71-5.85,3.38c-0.29,0.23-0.56,0.35-0.82,0.35c-0.78,0-1.17-0.81-1.17-2.43c0-1.01,2.38-2.64,7.15-4.9
		c0.29-0.06,0.58-0.13,0.87-0.22c0.2-1.96,0.52-4.9,0.95-8.8c0.43-3.9,1.4-5.85,2.9-5.85c1.24,0,1.91,0.81,1.99,2.43L1595.62,378.39
		z"/>
	<path d="M1618.48,407.17c-2.51,0.2-4.52-0.65-6.02-2.56c-1.39-1.73-2.08-3.91-2.08-6.54c0-4.45,1.06-9.27,3.18-14.45
		c2.12-5.19,4.11-7.78,5.96-7.78c1.67,0,2.51,0.71,2.51,2.12c0,0.41-0.48,1.24-1.43,2.51c-4.57,6.01-6.85,11.63-6.85,16.86
		c0,4.51,1.13,6.76,3.38,6.76c3.41,0,6.75-3.1,10.01-9.32c2.86-5.37,4.29-9.69,4.29-12.96c0-4.71-1.17-7.06-3.51-7.06
		c-1.79,0-3.7,0.95-5.72,2.86l-0.65-0.39c-0.41-0.23-0.61-0.58-0.61-1.04c0-0.98,1.04-1.98,3.12-2.99c1.73-0.84,3.02-1.26,3.86-1.26
		c4.68,0,7.11,3.61,7.28,10.83c0.09,3.5-1.46,8.1-4.64,13.82C1626.87,403.26,1622.84,406.79,1618.48,407.17z"/>
	<path d="M1670.65,408.08c-2.75,0-4.84-2.14-6.28-6.41c-1.01-2.95-1.52-5.82-1.52-8.62c0-2.57,0.32-5.73,0.95-9.49
		c0.95-5.43,2.25-8.15,3.9-8.15c1.3,0,1.95,0.75,1.95,2.25c0,0.69-0.41,1.99-1.21,3.9c-0.84,2.08-1.45,5.62-1.82,10.62
		c0.06,2.37,0.06,3.78,0,4.25c0.38,1.79,0.75,3.58,1.13,5.37c0.75,2.37,1.86,3.55,3.34,3.55c0.35,0,0.58-0.06,0.69-0.17
		c0.4-0.55,0.97-1,1.69-1.34c0.61,0.52,0.91,1.01,0.91,1.47c0,0.78-0.51,1.46-1.52,2.04
		C1672.05,407.83,1671.31,408.08,1670.65,408.08z M1668.05,365.26c-0.64,0-1.18-0.27-1.62-0.82s-0.67-1.07-0.67-1.56
		c0-0.58,0.22-1.16,0.67-1.73c0.45-0.58,1.02-0.87,1.71-0.87c1.5,0,2.25,0.82,2.25,2.47
		C1670.39,364.42,1669.61,365.26,1668.05,365.26z"/>
	<path d="M1686.1,378.39c1.3-0.32,2.86-0.48,4.68-0.48c0.84,0,1.83,0.3,2.99,0.91c1.47,0.81,2.21,1.76,2.21,2.86
		c0,0.2-0.04,0.39-0.13,0.56l-0.04,0.13c0-0.06-0.06,0.06-0.17,0.35c-0.32,0.12-0.43,0.19-0.35,0.22h-0.09
		c-0.17,0.09-0.38,0.13-0.61,0.13c-0.17,0-0.4-0.16-0.69-0.48c-0.58-1.39-1.53-2.08-2.86-2.08c-0.46,0-0.98,0.09-1.56,0.26
		c-1.21,0.32-2.46,0.87-3.73,1.65c0,0.14-0.01,0.38-0.04,0.69c-0.38,2.92-0.48,6.44-0.3,10.57c0.29,7.66,2.01,11.48,5.16,11.48
		c0.89,0,1.72-0.46,2.47-1.39c0.75-0.92,1.27-1.39,1.56-1.39c0.92,0,1.39,0.43,1.39,1.3c0,1.04-0.85,2.02-2.56,2.95
		c-1.42,0.75-2.47,1.13-3.16,1.13c-2.63,0-4.72-1.43-6.28-4.29c-1.1-2.05-1.78-4.32-2.04-6.8c-0.46-4.39-0.49-8.74-0.09-13.04
		c-1.62,0.58-3.57,1.71-5.85,3.38c-0.29,0.23-0.56,0.35-0.82,0.35c-0.78,0-1.17-0.81-1.17-2.43c0-1.01,2.38-2.64,7.15-4.9
		c0.29-0.06,0.58-0.13,0.87-0.22c0.2-1.96,0.52-4.9,0.95-8.8c0.43-3.9,1.4-5.85,2.9-5.85c1.24,0,1.91,0.81,1.99,2.43L1686.1,378.39z
		"/>
</g>
<g id="HEART_1">
	<g>
		
			<radialGradient id="SVGID_00000175319352364757898620000008784100104872114061_" cx="521.147" cy="177.847" r="202.0179" gradientUnits="userSpaceOnUse">
			<stop  offset="0" style="stop-color:#FFFFFF;stop-opacity:0.2"/>
			<stop  offset="0.26" style="stop-color:#C8DEEA"/>
			<stop  offset="0.3496" style="stop-color:#C0D9EB"/>
			<stop  offset="0.4806" style="stop-color:#ABCCEC"/>
			<stop  offset="0.5206" style="stop-color:#98C3E7"/>
			<stop  offset="0.602" style="stop-color:#65ACDC"/>
			<stop  offset="0.7167" style="stop-color:#1587C9"/>
			<stop  offset="0.7449" style="stop-color:#007EC4"/>
			<stop  offset="1" style="stop-color:#007EC4"/>
		</radialGradient>
		<path style="fill-rule:evenodd;clip-rule:evenodd;fill:url(#SVGID_00000175319352364757898620000008784100104872114061_);" d="
			M489.33,130.27c-69.31-56.83-115.7-21.06-122.14,23.89c-9.56,66.74,94.93,179.98,122.66,179.7
			c25.43-0.26,127.38-109.16,121.84-177.52C607.43,103.86,551.86,77.45,489.33,130.27z"/>
		
			<linearGradient id="SVGID_00000168097235065014665950000010047321083067078584_" gradientUnits="userSpaceOnUse" x1="356.9896" y1="284.4506" x2="605.3448" y2="163.3197">
			<stop  offset="0" style="stop-color:#007EC4"/>
			<stop  offset="0.1751" style="stop-color:#0065B1"/>
			<stop  offset="0.3409" style="stop-color:#0065B1;stop-opacity:0.8"/>
			<stop  offset="0.4166" style="stop-color:#5396CA;stop-opacity:0.8"/>
			<stop  offset="0.5141" style="stop-color:#B9D2EA;stop-opacity:0.8"/>
			<stop  offset="0.5579" style="stop-color:#E1EAF6;stop-opacity:0.8"/>
			<stop  offset="0.8137" style="stop-color:#E1EAF6;stop-opacity:0.9"/>
			<stop  offset="0.9995" style="stop-color:#FFFFFF;stop-opacity:0"/>
		</linearGradient>
		<path style="fill-rule:evenodd;clip-rule:evenodd;fill:url(#SVGID_00000168097235065014665950000010047321083067078584_);" d="
			M501.04,322.83C483.08,336.56,383.2,232.86,380.7,165.9c-0.35-9.3,7.31,17.24,23.69,40.53c15.38,21.89,38.92,44.22,64.78,56.41
			c36.53,17.22,73.53,2.66,115.24-37.93c1.77-1.72-4.21,10.82-16.62,31.5C560.03,269.32,535.18,296.73,501.04,322.83z"/>
		
			<linearGradient id="SVGID_00000161632648397770705310000013866965687403388074_" gradientUnits="userSpaceOnUse" x1="553.3691" y1="177.8605" x2="595.3068" y2="244.9748">
			<stop  offset="0" style="stop-color:#FFFFFF"/>
			<stop  offset="1" style="stop-color:#B4CBE9;stop-opacity:0.9"/>
		</linearGradient>
		<path style="fill-rule:evenodd;clip-rule:evenodd;fill:url(#SVGID_00000161632648397770705310000013866965687403388074_);" d="
			M562.95,149.79c1.42,0.27,3.04,0.9,4.36,1.56c2.4,1.18,5.9,6.76,5.61,22.13c-0.29,15.37-7.88,35.38-20.3,53.34
			c12.1-43.04,10.88-48.51,9.35-76.53C561.94,149.71,562.2,149.65,562.95,149.79z"/>
		
			<linearGradient id="SVGID_00000117658981646752957470000006126563371369425286_" gradientUnits="userSpaceOnUse" x1="568.2677" y1="185.0803" x2="604.9511" y2="246.1318">
			<stop  offset="0" style="stop-color:#FFFFFF"/>
			<stop  offset="1" style="stop-color:#B4CBE9;stop-opacity:0.9"/>
		</linearGradient>
		<path style="fill-rule:evenodd;clip-rule:evenodd;fill:url(#SVGID_00000117658981646752957470000006126563371369425286_);" d="
			M561.85,240.63c17.58-20.66,22.61-61.31,15.04-87.03c1.28-0.94,10.15,1.79,12.39,2.81c10.69,5.14,3.25,29.84,1.42,36.13
			C582.89,219.32,570.64,231.61,561.85,240.63z"/>
		
			<linearGradient id="SVGID_00000068666289970348291140000009866429116632865975_" gradientUnits="userSpaceOnUse" x1="547.415" y1="128.9332" x2="570.477" y2="128.9332">
			<stop  offset="0" style="stop-color:#FFFFFF"/>
			<stop  offset="1" style="stop-color:#D8E4F5"/>
		</linearGradient>
		<path style="fill-rule:evenodd;clip-rule:evenodd;fill:url(#SVGID_00000068666289970348291140000009866429116632865975_);" d="
			M570.16,145.81c1.88,0.27-5.06-15.56-6.63-18.61c-6.24-12.17-13.57-15.14-15.75-15.14c-0.18,0-0.41,0.13-0.36,0.39
			c8.69,8.5,11.87,22.58,12.03,28.19C559.47,141.28,568.48,145.51,570.16,145.81z"/>
		
			<linearGradient id="SVGID_00000001632291968913452290000018157197914167499142_" gradientUnits="userSpaceOnUse" x1="537.9239" y1="194.973" x2="667.4001" y2="86.3295">
			<stop  offset="0" style="stop-color:#B3CAE8;stop-opacity:0.7"/>
			<stop  offset="0.5079" style="stop-color:#7AB1E0;stop-opacity:0.7"/>
			<stop  offset="1" style="stop-color:#D8E4F5"/>
		</linearGradient>
		<path style="fill-rule:evenodd;clip-rule:evenodd;fill:url(#SVGID_00000001632291968913452290000018157197914167499142_);" d="
			M583.2,234.03c34.61-70.37,22.1-121.45-31.98-127.27c0,0,8.65-1.15,18.15,1.26c8.78,2.22,18.21,7.69,24.21,15.2
			C606.09,138.85,617.59,173.15,583.2,234.03z"/>
		
			<linearGradient id="SVGID_00000093141421311759248830000008156315811927358083_" gradientUnits="userSpaceOnUse" x1="561.9639" y1="131.4378" x2="593.5" y2="131.4378">
			<stop  offset="0" style="stop-color:#FFFFFF"/>
			<stop  offset="1" style="stop-color:#D8E4F5;stop-opacity:0.9"/>
		</linearGradient>
		<path style="fill-rule:evenodd;clip-rule:evenodd;fill:url(#SVGID_00000093141421311759248830000008156315811927358083_);" d="
			M593.5,150.36c0.09-27.14-31.96-45.38-31.53-34.78c15.84,15.71,13.55,29.43,14.84,30.24C578.11,146.62,593.41,150.35,593.5,150.36
			z"/>
		
			<linearGradient id="SVGID_00000051357363443380601830000017068830335468909187_" gradientUnits="userSpaceOnUse" x1="397.038" y1="283.1137" x2="468.7808" y2="197.6139">
			<stop  offset="0" style="stop-color:#007EC4"/>
			<stop  offset="0.42" style="stop-color:#2E76BB"/>
			<stop  offset="0.7312" style="stop-color:#2E76BB;stop-opacity:0.4"/>
			<stop  offset="0.9985" style="stop-color:#A2BEE4"/>
		</linearGradient>
		<path style="fill-rule:evenodd;clip-rule:evenodd;fill:url(#SVGID_00000051357363443380601830000017068830335468909187_);" d="
			M545.13,280.65c-11.77,19.49-37.93,41.01-54.46,41.73c-10.6,0.46-18.17-8.42-36.94-23.13c-48.04-37.65-69.15-86.62-78.81-117.22
			c-9.65-30.6,9.4-75.23,34.05-75.23c0,0-38.5,11.25-26.81,67.83c12.7,61.49,62.32,123.64,109.44,130.75
			C509.32,308.06,533.14,291.22,545.13,280.65z"/>
		
			<linearGradient id="SVGID_00000088822623930037489680000011784287198422544257_" gradientUnits="userSpaceOnUse" x1="485.7397" y1="198.1728" x2="429.4736" y2="281.5907">
			<stop  offset="0" style="stop-color:#B4CBE9"/>
			<stop  offset="1" style="stop-color:#B4CBE9"/>
		</linearGradient>
		<path style="fill-rule:evenodd;clip-rule:evenodd;fill:url(#SVGID_00000088822623930037489680000011784287198422544257_);" d="
			M486.38,302.03c-21.06-4.79-61.77-33.08-85.45-83.71c-2.21-4.73,15.82,22.86,26.72,32.33c24.91,20.07,56.05,28.64,49.03,35.83
			C469.66,293.66,492.41,303.4,486.38,302.03z"/>
		
			<linearGradient id="SVGID_00000072963870739405423230000014027383350335026105_" gradientUnits="userSpaceOnUse" x1="525.5535" y1="297.8519" x2="538.9425" y2="247.8832">
			<stop  offset="0" style="stop-color:#3C6AB2"/>
			<stop  offset="0.42" style="stop-color:#3C6AB2"/>
			<stop  offset="1" style="stop-color:#3E69B2;stop-opacity:0.3"/>
		</linearGradient>
		<path style="fill-rule:evenodd;clip-rule:evenodd;fill:url(#SVGID_00000072963870739405423230000014027383350335026105_);" d="
			M556.61,263.72c0,0-14.15,12.65-17.73,19.38c-3.15,5.92-5.46,8.63-13.06,15.41c-8.61,7.68-18.73,13.51-26.92,18.07
			c-7.24,4.02,16.64-5.89,34.09-22.29C554.47,273.83,559.32,262.16,556.61,263.72z"/>
	</g>
</g>
</svg>
